<svg width="14" height="9" viewBox="0 0 14 9" fill="none" xmlns="http://www.w3.org/2000/svg">
<path d="M8.25776 0.175679C8.49208 -0.0585213 8.87211 -0.0585978 9.10639 0.175679L12.9247 3.99404C13.1584 4.22826 13.1585 4.60753 12.9247 4.84169L9.10639 8.66005C8.87216 8.89428 8.49209 8.89412 8.25776 8.66005C8.0237 8.42578 8.02368 8.04666 8.25776 7.8124L11.6523 4.41787L8.25776 1.02333C8.02368 0.789071 8.0237 0.40995 8.25776 0.175679Z" fill="white"/>
<path d="M3.96479 0.88271C4.16005 0.687449 4.47656 0.687448 4.67182 0.88271L7.85346 4.06435C8.04865 4.25962 8.0487 4.57614 7.85346 4.77138L4.67182 7.95302C4.47657 8.14819 4.16003 8.14819 3.96479 7.95302C3.76955 7.75778 3.76959 7.44126 3.96479 7.24599L6.29291 4.91787L0 4.91787L0 3.91787L6.29291 3.91787L3.96479 1.58974C3.76955 1.3945 3.76959 1.07798 3.96479 0.88271Z" fill="white"/>
</svg>
