<svg width="20" height="42" viewBox="0 0 20 42" fill="none" xmlns="http://www.w3.org/2000/svg">
<path d="M5.31823 28.6234L2.44678 26.3445L2.72025 27.3016L5.31823 28.6234Z" fill="#FF3844"/>
<path d="M10.3777 28.6234L13.2036 26.3445L12.9345 27.3016L10.3777 28.6234Z" fill="#FF3844"/>
<path d="M2.26465 23.3647V19.3431L6.32114 19.2075L9.23817 16.7674L13.3858 16.1348V19.3431V23.3647L9.01028 27.7026V29.3293L7.82523 31.905L6.64019 29.3293V27.7026L2.26465 23.3647Z" fill="white"/>
<path d="M18.3537 30.3097L2.81145 41.9779L15.0265 29.1247V17.8412L10.2608 22.607V20.7838L12.6286 16.6826L5.99873 20.5104V23.3362L2.03661 19.3741L3.60071 13.5368L0 17.1375L1.35294 12.0883L6.19048 7.25077L8.29784 3.60071L6.82237 9.10725L9.68536 6.24426V0L12.6286 10.9844L7.49724 13.947L6.19048 18.8239L9.00616 13.947L14.1375 10.9844L15.4077 6.24426L17.032 12.3062V15.8293L19.8714 12.9899L18.9918 16.2724L19.6755 18.8239V27.4383L18.3537 30.3097Z" fill="url(#paint0_linear_4005_3459)"/>
<defs>
<linearGradient id="paint0_linear_4005_3459" x1="9.71601e-08" y1="5.24723" x2="22.3788" y2="6.84439" gradientUnits="userSpaceOnUse">
<stop stop-color="#FF3844"/>
<stop offset="1" stop-color="#992229"/>
</linearGradient>
</defs>
</svg>
